<?xml version="1.0" encoding="UTF-8"?>
<svg width="72px" height="52px" viewBox="0 0 72 52" version="1.1" xmlns="http://www.w3.org/2000/svg" xmlns:xlink="http://www.w3.org/1999/xlink">
    <!-- Generator: Sketch 62 (91390) - https://sketch.com -->
    <title>Co-mate</title>
    <desc>Created with Sketch.</desc>
    <defs>
        <linearGradient x1="32.2087689%" y1="23.9513795%" x2="111.186222%" y2="74.4245583%" id="linearGradient-1">
            <stop stop-color="#09BE92" offset="0%"></stop>
            <stop stop-color="#0F8395" offset="100%"></stop>
        </linearGradient>
        <path d="M69.36,47.992 C69.808,47.992 70.1973333,47.832 70.528,47.512 C70.8586667,47.192 71.024,46.7973333 71.024,46.328 L71.024,46.328 L71.024,24.664 C71.024,24.1733333 70.864,23.7733333 70.544,23.464 C70.224,23.1546667 69.8293333,23 69.36,23 C68.72,23 68.2293333,23.2986667 67.888,23.896 L67.888,23.896 L58.633,42.921 L49.136,23.896 C48.8231111,23.3484444 48.3847407,23.0518519 47.8208889,23.0062222 L47.664,23 C47.1946667,23 46.8,23.1546667 46.48,23.464 C46.16,23.7733333 46,24.1733333 46,24.664 L46,24.664 L46,46.328 C46,46.7973333 46.16,47.192 46.48,47.512 C46.8,47.832 47.1946667,47.992 47.664,47.992 C48.1333333,47.992 48.528,47.832 48.848,47.512 C49.168,47.192 49.328,46.7973333 49.328,46.328 L49.328,46.328 L49.328,30.714 L56.976,46.04 C57.2713846,46.6504615 57.7303669,46.9791716 58.3529467,47.0261302 L58.512,47.032 C59.1093333,47.032 59.5893333,46.7546667 59.952,46.2 L59.952,46.2 L67.696,30.416 L67.696,46.328 C67.696,46.7386667 67.8185,47.0921667 68.0635,47.3885 L68.176,47.512 C68.496,47.832 68.8906667,47.992 69.36,47.992 Z M24.896,51.264 C27.7973333,51.264 30.592,50.848 33.28,50.016 C35.968,49.184 38.4,47.7653333 40.576,45.76 C40.832,45.4613333 41.0133333,45.1733333 41.12,44.896 C41.2266667,44.6186667 41.28,44.3093333 41.28,43.968 C41.28,43.2853333 41.0666667,42.7306667 40.64,42.304 C40.2133333,41.8773333 39.712,41.6213333 39.136,41.536 C38.56,41.4506667 38.016,41.6213333 37.504,42.048 C35.6266667,43.4986667 33.6426667,44.608 31.552,45.376 C29.4613333,46.144 27.2426667,46.528 24.896,46.528 C22.1226667,46.528 19.5306667,45.984 17.12,44.896 C14.7093333,43.808 12.5866667,42.304 10.752,40.384 C8.91733333,38.464 7.47733333,36.2453333 6.432,33.728 C5.38666667,31.2106667 4.864,28.5013333 4.864,25.6 C4.864,22.784 5.38666667,20.1173333 6.432,17.6 C7.47733333,15.0826667 8.91733333,12.864 10.752,10.944 C12.5866667,9.024 14.7093333,7.50933333 17.12,6.4 C19.5306667,5.29066667 22.1226667,4.736 24.896,4.736 C27.4986667,4.736 29.7813333,5.088 31.744,5.792 C33.7066667,6.496 35.52,7.57333333 37.184,9.024 C37.6106667,9.36533333 38.048,9.55733333 38.496,9.6 C38.944,9.64266667 39.3386667,9.57866667 39.68,9.408 C40.0213333,9.23733333 40.2346667,8.98133333 40.32,8.64 C40.6613333,8.46933333 40.9173333,8.20266667 41.088,7.84 C41.2586667,7.47733333 41.312,7.09333333 41.248,6.688 C41.184,6.28266667 40.96,5.93066667 40.576,5.632 C38.2293333,3.66933333 35.7973333,2.24 33.28,1.344 C30.7626667,0.448 27.968,0 24.896,0 C21.3973333,0 18.144,0.672 15.136,2.016 C12.128,3.36 9.48266667,5.20533333 7.2,7.552 C4.91733333,9.89866667 3.14666667,12.6186667 1.888,15.712 C0.629333333,18.8053333 0,22.1013333 0,25.6 C0,29.1413333 0.64,32.4586667 1.92,35.552 C3.2,38.6453333 4.98133333,41.376 7.264,43.744 C9.54666667,46.112 12.192,47.9573333 15.2,49.28 C18.208,50.6026667 21.44,51.264 24.896,51.264 Z" id="path-2"></path>
    </defs>
    <g id="Page-1" stroke="none" stroke-width="1" fill="none" fill-rule="evenodd">
        <mask id="mask-3" fill="white">
            <use xlink:href="#path-2"></use>
        </mask>
        <use id="Co-mate" fill="url(#linearGradient-1)" fill-rule="nonzero" xlink:href="#path-2"></use>
    </g>
</svg>