<?xml version="1.0" encoding="UTF-8"?>
<svg width="278px" height="52px" viewBox="0 0 278 52" version="1.1" xmlns="http://www.w3.org/2000/svg"
     xmlns:xlink="http://www.w3.org/1999/xlink">
    <!-- Generator: Sketch 62 (91390) - https://sketch.com -->
    <title>Co-mate</title>
    <desc>Created with Sketch.</desc>
    <defs>
        <linearGradient x1="48.065207%" y1="30.3403183%" x2="48.065207%" y2="130.340318%" id="linearGradient-1">
            <stop stop-color="#0F8395" offset="0%"></stop>
            <stop stop-color="#09BE92" offset="98.475248%"></stop>
            <stop stop-color="#0F8395" offset="100%"></stop>
        </linearGradient>
        <path d="M24.912,51.64 C27.8133333,51.64 30.608,51.224 33.296,50.392 C35.984,49.56 38.416,48.1413333 40.592,46.136 C40.848,45.8373333 41.0293333,45.5493333 41.136,45.272 C41.2426667,44.9946667 41.296,44.6853333 41.296,44.344 C41.296,43.6613333 41.0826667,43.1066667 40.656,42.68 C40.2293333,42.2533333 39.728,41.9973333 39.152,41.912 C38.576,41.8266667 38.032,41.9973333 37.52,42.424 C35.6426667,43.8746667 33.6586667,44.984 31.568,45.752 C29.4773333,46.52 27.2586667,46.904 24.912,46.904 C22.1386667,46.904 19.5466667,46.36 17.136,45.272 C14.7253333,44.184 12.6026667,42.68 10.768,40.76 C8.93333333,38.84 7.49333333,36.6213333 6.448,34.104 C5.40266667,31.5866667 4.88,28.8773333 4.88,25.976 C4.88,23.16 5.40266667,20.4933333 6.448,17.976 C7.49333333,15.4586667 8.93333333,13.24 10.768,11.32 C12.6026667,9.4 14.7253333,7.88533333 17.136,6.776 C19.5466667,5.66666667 22.1386667,5.112 24.912,5.112 C27.5146667,5.112 29.7973333,5.464 31.76,6.168 C33.7226667,6.872 35.536,7.94933333 37.2,9.4 C37.6266667,9.74133333 38.064,9.93333333 38.512,9.976 C38.96,10.0186667 39.3546667,9.95466667 39.696,9.784 C40.0373333,9.61333333 40.2506667,9.35733333 40.336,9.016 C40.6773333,8.84533333 40.9333333,8.57866667 41.104,8.216 C41.2746667,7.85333333 41.328,7.46933333 41.264,7.064 C41.2,6.65866667 40.976,6.30666667 40.592,6.008 C38.2453333,4.04533333 35.8133333,2.616 33.296,1.72 C30.7786667,0.824 27.984,0.376 24.912,0.376 C21.4133333,0.376 18.16,1.048 15.152,2.392 C12.144,3.736 9.49866667,5.58133333 7.216,7.928 C4.93333333,10.2746667 3.16266667,12.9946667 1.904,16.088 C0.645333333,19.1813333 0.016,22.4773333 0.016,25.976 C0.016,29.5173333 0.656,32.8346667 1.936,35.928 C3.216,39.0213333 4.99733333,41.752 7.28,44.12 C9.56266667,46.488 12.208,48.3333333 15.216,49.656 C18.224,50.9786667 21.456,51.64 24.912,51.64 Z M64.336,51.32 C67.7493333,51.32 70.7893333,50.552 73.456,49.016 C76.1226667,47.48 78.2346667,45.368 79.792,42.68 C81.3493333,39.992 82.128,36.9413333 82.128,33.528 C82.0853333,30.072 81.296,27 79.76,24.312 C78.224,21.624 76.1226667,19.512 73.456,17.976 C70.7893333,16.44 67.7493333,15.672 64.336,15.672 C60.9226667,15.672 57.872,16.44 55.184,17.976 C52.496,19.512 50.384,21.624 48.848,24.312 C47.312,27 46.544,30.072 46.544,33.528 C46.544,36.9413333 47.312,39.992 48.848,42.68 C50.384,45.368 52.496,47.48 55.184,49.016 C57.872,50.552 60.9226667,51.32 64.336,51.32 Z M64.336,46.84 C61.8613333,46.84 59.6426667,46.264 57.68,45.112 C55.7173333,43.96 54.1706667,42.3813333 53.04,40.376 C51.9093333,38.3706667 51.344,36.088 51.344,33.528 C51.344,30.968 51.9093333,28.6746667 53.04,26.648 C54.1706667,24.6213333 55.7173333,23.032 57.68,21.88 C59.6426667,20.728 61.8613333,20.152 64.336,20.152 C66.8106667,20.152 69.0293333,20.728 70.992,21.88 C72.9546667,23.032 74.4906667,24.6213333 75.6,26.648 C76.7093333,28.6746667 77.264,30.968 77.264,33.528 C77.264,36.088 76.7093333,38.3706667 75.6,40.376 C74.4906667,42.3813333 72.9546667,43.96 70.992,45.112 C69.0293333,46.264 66.8106667,46.84 64.336,46.84 Z M105.872,35.96 C106.597333,35.96 107.194667,35.7253333 107.664,35.256 C108.133333,34.7866667 108.368,34.2106667 108.368,33.528 C108.368,32.8026667 108.133333,32.2053333 107.664,31.736 C107.194667,31.2666667 106.597333,31.032 105.872,31.032 L105.872,31.032 L90.832,31.032 C90.1493333,31.032 89.5733333,31.2666667 89.104,31.736 C88.6346667,32.2053333 88.4,32.8026667 88.4,33.528 C88.4,34.2106667 88.6346667,34.7866667 89.104,35.256 C89.5733333,35.7253333 90.1493333,35.96 90.832,35.96 L90.832,35.96 L105.872,35.96 Z M164.048,51 C164.773333,51 165.36,50.776 165.808,50.328 C166.256,49.88 166.48,49.2933333 166.48,48.568 L166.48,48.568 L166.48,30.136 C166.48,27.192 165.936,24.632 164.848,22.456 C163.76,20.28 162.245333,18.5946667 160.304,17.4 C158.362667,16.2053333 156.133333,15.608 153.616,15.608 C150.970667,15.608 148.602667,16.2053333 146.512,17.4 C144.790275,18.3838431 143.372383,19.7004567 142.258325,21.3498408 L142.069,21.64 L141.896138,21.3498408 C140.948983,19.8182699 139.752323,18.5736286 138.306159,17.615917 L137.968,17.4 C136.026667,16.2053333 133.797333,15.608 131.28,15.608 C128.805333,15.608 126.586667,16.2053333 124.624,17.4 C123.52,18.072 122.547625,18.889125 121.706875,19.851375 L121.679,19.884 L121.68,18.488 C121.68,17.8352 121.49856,17.28608 121.13568,16.84064 L121.008,16.696 C120.56,16.2266667 119.973333,15.992 119.248,15.992 C118.48,15.992 117.872,16.2266667 117.424,16.696 C116.976,17.1653333 116.752,17.7626667 116.752,18.488 L116.752,18.488 L116.752,48.568 C116.752,49.2933333 116.976,49.88 117.424,50.328 C117.872,50.776 118.48,51 119.248,51 C119.973333,51 120.56,50.776 121.008,50.328 C121.456,49.88 121.68,49.2933333 121.68,48.568 L121.68,48.568 L121.679,29.624 L121.684839,29.265225 C121.75259,26.7745482 122.53172,24.7195917 124.022231,23.1003554 L124.24,22.872 C125.946667,21.144 128.122667,20.28 130.768,20.28 C133.242667,20.28 135.269333,21.1653333 136.848,22.936 C138.426667,24.7066667 139.216,27.1066667 139.216,30.136 L139.216,30.136 L139.216,48.568 C139.216,49.2933333 139.450667,49.88 139.92,50.328 C140.389333,50.776 140.986667,51 141.712,51 C142.437333,51 143.024,50.776 143.472,50.328 C143.92,49.88 144.144,49.2933333 144.144,48.568 L144.144,48.568 L144.144,30.136 L144.144,30.136 L144.142,30.008 C144.102522,27.192 144.85288,24.9127612 146.393074,23.1702836 L146.608,22.936 C148.293333,21.1653333 150.458667,20.28 153.104,20.28 C155.578667,20.28 157.605333,21.1653333 159.184,22.936 C160.762667,24.7066667 161.552,27.1066667 161.552,30.136 L161.552,30.136 L161.552,48.568 C161.552,49.2933333 161.786667,49.88 162.256,50.328 C162.725333,50.776 163.322667,51 164.048,51 Z M192.784,51.32 C195.898667,51.32 198.682667,50.6053333 201.136,49.176 C203.044148,48.0642963 204.642568,46.6428642 205.931259,44.9117037 L206.095,44.684 L206.096,48.568 C206.096,49.2208 206.28608,49.76128 206.66624,50.18944 L206.8,50.328 C207.269333,50.776 207.866667,51 208.592,51 C209.317333,51 209.914667,50.776 210.384,50.328 C210.853333,49.88 211.088,49.2933333 211.088,48.568 L211.088,48.568 L211.088,33.528 C211.045333,30.1146667 210.245333,27.064 208.688,24.376 C207.130667,21.688 205.018667,19.5653333 202.352,18.008 C199.685333,16.4506667 196.666667,15.672 193.296,15.672 C189.925333,15.672 186.896,16.4506667 184.208,18.008 C181.52,19.5653333 179.397333,21.688 177.84,24.376 C176.282667,27.064 175.504,30.1146667 175.504,33.528 C175.504,36.8986667 176.261333,39.928 177.776,42.616 C179.290667,45.304 181.349333,47.4266667 183.952,48.984 C186.554667,50.5413333 189.498667,51.32 192.784,51.32 Z M193.296,46.84 C190.864,46.84 188.666667,46.264 186.704,45.112 C184.741333,43.96 183.184,42.3706667 182.032,40.344 C180.88,38.3173333 180.304,36.0453333 180.304,33.528 C180.304,30.968 180.88,28.6853333 182.032,26.68 C183.184,24.6746667 184.741333,23.0853333 186.704,21.912 C188.666667,20.7386667 190.864,20.152 193.296,20.152 C195.770667,20.152 197.978667,20.7386667 199.92,21.912 C201.861333,23.0853333 203.397333,24.6746667 204.528,26.68 C205.658667,28.6853333 206.224,30.968 206.224,33.528 C206.224,36.0453333 205.658667,38.3173333 204.528,40.344 C203.397333,42.3706667 201.861333,43.96 199.92,45.112 C197.978667,46.264 195.770667,46.84 193.296,46.84 Z M235.728,51 C236.496,51 237.136,50.776 237.648,50.328 C238.16,49.88 238.416,49.2933333 238.416,48.568 C238.416,47.8426667 238.202667,47.2453333 237.776,46.776 C237.349333,46.3066667 236.794667,46.072 236.112,46.072 L236.112,46.072 L234.384,46.072 C232.378667,46.072 230.736,45.3786667 229.456,43.992 C228.176,42.6053333 227.536,40.824 227.536,38.648 L227.536,38.648 L227.535,21.56 L234.768,21.56 C235.336889,21.56 235.821498,21.3998683 236.221827,21.0796049 L236.368,20.952 C236.794667,20.5466667 237.008,20.0453333 237.008,19.448 C237.008,18.808 236.794667,18.2853333 236.368,17.88 C235.941333,17.4746667 235.408,17.272 234.768,17.272 L234.768,17.272 L227.535,17.272 L227.536,7.352 C227.536,6.6992 227.34592,6.15008 226.96576,5.70464 L226.832,5.56 C226.362667,5.09066667 225.765333,4.856 225.04,4.856 C224.314667,4.856 223.728,5.09066667 223.28,5.56 C222.832,6.02933333 222.608,6.62666667 222.608,7.352 L222.608,7.352 L222.607,17.272 L218.448,17.272 C217.879111,17.272 217.394502,17.4321317 216.994173,17.7523951 L216.848,17.88 C216.421333,18.2853333 216.208,18.808 216.208,19.448 C216.208,20.0453333 216.421333,20.5466667 216.848,20.952 C217.274667,21.3573333 217.808,21.56 218.448,21.56 L218.448,21.56 L222.607,21.56 L222.608,38.648 C222.608,40.888 223.058,42.893625 223.958,44.664875 L224.144,45.016 C225.168,46.872 226.565333,48.3333333 228.336,49.4 C230.106667,50.4666667 232.122667,51 234.384,51 L234.384,51 L235.728,51 Z M262.288,51.32 C264.293333,51.32 266.384,50.9253333 268.56,50.136 C270.736,49.3466667 272.528,48.3546667 273.936,47.16 C274.448,46.7333333 274.693333,46.2213333 274.672,45.624 C274.650667,45.0266667 274.362667,44.472 273.808,43.96 C273.381333,43.6186667 272.869333,43.4586667 272.272,43.48 C271.674667,43.5013333 271.141333,43.704 270.672,44.088 C269.733333,44.8986667 268.485333,45.5706667 266.928,46.104 C265.370667,46.6373333 263.824,46.904 262.288,46.904 C259.728,46.904 257.466667,46.328 255.504,45.176 C253.541333,44.024 251.994667,42.4453333 250.864,40.44 C249.999373,38.9065098 249.465338,37.1983668 249.261896,35.3155709 L249.243,35.128 L275.088,35.128 C275.694815,35.128 276.200494,34.9678683 276.605037,34.6476049 L276.752,34.52 C277.178667,34.1146667 277.392,33.5706667 277.392,32.888 C277.392,29.56 276.730667,26.5946667 275.408,23.992 C274.085333,21.3893333 272.218667,19.352 269.808,17.88 C267.397333,16.408 264.570667,15.672 261.328,15.672 C258.042667,15.672 255.141333,16.44 252.624,17.976 C250.106667,19.512 248.133333,21.6133333 246.704,24.28 C245.274667,26.9466667 244.56,30.0293333 244.56,33.528 C244.56,36.984 245.317333,40.056 246.832,42.744 C248.346667,45.432 250.437333,47.5333333 253.104,49.048 C255.770667,50.5626667 258.832,51.32 262.288,51.32 Z M272.771,31.032 L249.334,31.032 L249.3795,30.7215 C249.591,29.379 249.961125,28.127625 250.489875,26.967375 L250.672,26.584 C251.674667,24.5573333 253.093333,22.968 254.928,21.816 C256.762667,20.664 258.896,20.088 261.328,20.088 C263.717333,20.088 265.776,20.6426667 267.504,21.752 C269.232,22.8613333 270.565333,24.3973333 271.504,26.36 C272.129778,27.6684444 272.537481,29.0906667 272.727111,30.6266667 L272.771,31.032 Z"
              id="path-2"></path>
    </defs>
    <g id="Page-1" stroke="none" stroke-width="1" fill="none" fill-rule="evenodd">
        <g id="Co-mate" fill-rule="nonzero">
            <use fill="#0F8395" xlink:href="#path-2"></use>
            <use fill="url(#linearGradient-1)" xlink:href="#path-2"></use>
        </g>
    </g>
</svg>